 General
      Complete name : Sin.City.2005.Extended.Cut.BRRip.H264.AAC.5.1ch.Gopo.mp4
      Format : MPEG-4
      Format profile : Base Media
      Codec ID : isom
      File size : 2.25 GiB
      Duration : 2h 21mn
      Overall bit rate : 2 276 Kbps
      Encoded date : UTC 2010-01-22 13:28:26
      Tagged date : UTC 2010-01-22 13:28:26
   Video #1
      ID : 1
      Format : AVC
      Format/Info : Advanced Video Codec
      Format profile : High@L4.1
      Format settings, CABAC : Yes
      Format settings, ReFrames : 5 frames
      Codec ID : avc1
      Codec ID/Info : Advanced Video Coding
      Duration : 2h 21mn
      Bit rate mode : Variable
      Bit rate : 1 939 Kbps
      Maximum bit rate : 15.7 Mbps
      Width : 1 280 pixels
      Height : 694 pixels
      Display aspect ratio : 16:9
      Frame rate mode : Constant
      Frame rate : 23.976 fps
      Resolution : 24 bits
      Colorimetry : 4:2:0
      Scan type : Progressive
      Bits/(Pixel*Frame) : 0.091
      Stream size : 1.92 GiB (85%)
      Writing library : x264 core 83 r1391 3d0f110
      Encoding settings : cabac=1 / ref=5 / deblock=1:0:0 / analyse=0x3:0x113 / me=umh / subme=7 / psy=1 / psy_rd=1.0:0.0 / mixed_ref=1 / me_range=16 / chroma_me=1 / trellis=2 / 8x8dct=1 / cqm=0 / deadzone=21,11 / fast_pskip=1 / chroma_qp_offset=-2 / threads=1 / sliced_threads=0 / nr=0 / decimate=1 / mbaff=0 / constrained_intra=0 / bframes=3 / b_pyramid=0 / b_adapt=2 / b_bias=0 / direct=3 / wpredb=1 / wpredp=2 / keyint=250 / keyint_min=25 / scenecut=40 / intra_refresh=0 / rc_lookahead=30 / rc=2pass / mbtree=1 / bitrate=1939 / ratetol=1.0 / qcomp=0.50 / qpmin=10 / qpmax=51 / qpstep=4 / cplxblur=20.0 / qblur=0.5 / vbv_maxrate=24000 / vbv_bufsize=24000 / ip_ratio=1.10 / aq=1:1.00
      Encoded date : UTC 2010-01-20 18:48:27
      Tagged date : UTC 2010-01-22 13:34:48
   Audio #2
      ID : 2
      Format : AAC
      Format/Info : Advanced Audio Codec
      Format version : Version 4
      Format profile : LC
      Format settings, SBR : No
      Codec ID : 40
      Duration : 2h 21mn
      Bit rate mode : Variable
      Bit rate : 333 Kbps
      Maximum bit rate : 469 Kbps
      Channel(s) : 6 channels
      Channel positions : Front: L C R, Rear: L R, LFE
      Sampling rate : 48.0 KHz
      Resolution : 16 bits
      Stream size : 337 MiB (15%)
      Encoded date : UTC 2010-01-22 13:34:18
      Tagged date : UTC 2010-01-22 13:34:48
	Sample : YES
	Subtitle : English,Romanian

PLOT

"Sin City" is four stories inter-weaved telling tales of corruption in Basin City. The first story (The Customer is always right) is short, and is based on the depression of women that they need to pay a man to feel loved when they commit suicide. The next story is Part 1 of "That Yellow Bastard" about a cop who needs to save a young girl from being raped. The third story (The Hard Goodbye) features a man taking revenge on a heartless killer who murdered his one-night stand. The fourth story (The Big, Fat Kill) stars a man who must dispatch a cop's body, but it will be a tough ride to do it. Following that are two conclusions to Sin City, the ending of "That Yellow Bastard" which is set 8 years later, and a short story that ends Sin City.
Director: Frank Miller
CASTING 
     
      Jessica Alba	... 	Nancy Callahan
	Devon Aoki	... 	Miho
	Alexis Bledel	... 	Becky
	Powers Boothe	... 	Senator Roark
	Cara D. Briggs	... 	Hearing Panel Person (as Cara Briggs)
	Jude Ciccolella	... 	Liebowitz
	Jeffrey J. Dashnaw	... 	Motorcycle Cop (as Jeff Dashnaw)
	Rosario Dawson	... 	Gail
	Jesse De Luna	... 	Corporal Rivera
	Benicio Del Toro	... 	Jackie Boy
	Jason Douglas	... 	Hitman
	Michael Clarke Duncan	... 	Manute
	Tommy Flanagan	... 	Brian
	Christina Frankenfield	... 	Judge
	Rick Gomez	... 	Klump

SOURCE: Sin.City.2005.Extended.Cut.720p.BluRay.x264-ESiR.mkv

Notes: For best performance I suggest you to use KMPlayer(find it with google) for playback
I haven't tested the movies on a PS3 or Xbox or other devices than PC because I don't own one of them but feel free to test them if you have the oportunity.
